<?xml version="1.0" encoding="UTF-8" standalone="no"?>
<svg
   xmlns:dc="http://purl.org/dc/elements/1.1/"
   xmlns:cc="http://creativecommons.org/ns#"
   xmlns:rdf="http://www.w3.org/1999/02/22-rdf-syntax-ns#"
   xmlns:svg="http://www.w3.org/2000/svg"
   xmlns="http://www.w3.org/2000/svg"
   id="svg4185"
   version="1.1"
   viewBox="0 0 264.58333 264.58334"
   height="1000"
   width="1000">
  <defs
     id="defs4179" />
  <metadata
     id="metadata4182">
    <rdf:RDF>
      <cc:Work
         rdf:about="">
        <dc:format>image/svg+xml</dc:format>
        <dc:type
           rdf:resource="http://purl.org/dc/dcmitype/StillImage" />
        <dc:title></dc:title>
      </cc:Work>
    </rdf:RDF>
  </metadata>
  <g
     transform="translate(0,-32.41665)"
     id="layer1">
    <path
       id="path28"
       style="fill-opacity:1;fill-rule:evenodd;stroke:none;stroke-width:2.16282868"
       d="m 132.56568,37.585266 c -72.12385,0 -130.6089081,58.472036 -130.6089081,130.608894 0,57.70427 37.4234301,106.66208 89.3183411,123.93226 6.527422,1.209 8.923837,-2.83332 8.923837,-6.28302 0,-3.11233 -0.12115,-13.40303 -0.17737,-24.31668 -36.335511,7.90082 -44.002739,-15.41015 -44.002739,-15.41015 -5.941287,-15.09441 -14.501767,-19.11079 -14.501767,-19.11079 -11.850137,-8.10628 0.893247,-7.9397 0.893247,-7.9397 13.115398,0.92135 20.021308,13.46139 20.021308,13.46139 11.648996,19.96513 30.554287,14.1925 38.007391,10.8553 1.17442,-8.43937 4.55709,-14.2033 8.29229,-17.46484 -29.010024,-3.30049 -59.505914,-14.5018 -59.505914,-64.54747 0,-14.25736 5.102115,-25.91071 13.45712,-35.05733 -1.35609,-3.28963 -5.826659,-16.57372 1.267419,-34.564163 0,0 10.967705,-3.508136 35.924595,13.390083 10.41834,-2.89388 21.59151,-4.34511 32.69115,-4.39704 11.09964,0.049 22.28146,1.50316 32.71929,4.39704 24.92876,-16.898219 35.88132,-13.390083 35.88132,-13.390083 7.10921,17.990443 2.63864,31.274533 1.28254,34.564163 8.37449,9.14662 13.43983,20.79997 13.43983,35.05733 0,50.16681 -30.55427,61.21019 -59.63784,64.44361 4.68469,4.05317 8.85895,12.00157 8.85895,24.18695 0,17.47562 -0.14922,31.54054 -0.14922,35.84238 0,3.47785 2.34883,7.54825 8.96925,6.26787 51.86896,-17.28967 89.24479,-66.23013 89.24479,-123.91711 0,-72.136858 -58.47639,-130.608894 -130.6089,-130.608894" />
    <path
       id="path32"
       style="fill-opacity:1;fill-rule:nonzero;stroke:none;stroke-width:2.16282868"
       d="m 51.425858,225.10945 c -0.28766,0.65103 -1.308514,0.84569 -2.238529,0.40034 -0.949485,-0.42855 -1.479374,-1.3128 -1.172255,-1.96384 0.281161,-0.66617 1.302021,-0.85218 2.249342,-0.40647 0.947322,0.4261 1.488026,1.31929 1.161442,1.97033" />
    <path
       id="path36"
       style="fill-opacity:1;fill-rule:nonzero;stroke:none;stroke-width:2.16282868"
       d="m 56.716778,231.0107 c -0.622895,0.57752 -1.842732,0.309 -2.666768,-0.60327 -0.85648,-0.91057 -1.014368,-2.13036 -0.38281,-2.71432 0.642359,-0.57752 1.823266,-0.30715 2.677583,0.60327 0.85648,0.92135 1.023018,2.12821 0.37202,2.71432" />
    <path
       id="path40"
       style="fill-opacity:1;fill-rule:nonzero;stroke:none;stroke-width:2.16282868"
       d="m 61.866266,238.53197 c -0.800242,0.5579 -2.11092,0.0368 -2.919819,-1.12471 -0.800242,-1.16357 -0.800242,-2.55644 0.01962,-3.11447 0.808898,-0.55791 2.100112,-0.0552 2.919819,1.09656 0.798083,1.18093 0.798083,2.5738 -0.01962,3.14262" />
    <path
       id="path44"
       style="fill-opacity:1;fill-rule:nonzero;stroke:none;stroke-width:2.16282868"
       d="m 68.920763,245.79991 c -0.715893,0.78947 -2.240691,0.57753 -3.35671,-0.50211 -1.141975,-1.05114 -1.459909,-2.54559 -0.744015,-3.33507 0.726715,-0.79161 2.260157,-0.56894 3.384832,0.49966 1.133318,1.05115 1.477211,2.55645 0.715893,3.33728" />
    <path
       id="path48"
       style="fill-opacity:1;fill-rule:nonzero;stroke:none;stroke-width:2.16282868"
       d="m 78.653494,250.01984 c -0.317946,1.02299 -1.784336,1.48587 -3.263711,1.05114 -1.477211,-0.44755 -2.443992,-1.64381 -2.145523,-2.6776 0.307094,-1.02955 1.782172,-1.51401 3.272361,-1.04899 1.475048,0.44572 2.443998,1.63511 2.136873,2.67545" />
    <path
       id="path52"
       style="fill-opacity:1;fill-rule:nonzero;stroke:none;stroke-width:2.16282868"
       d="m 89.343067,250.80146 c 0.03679,1.07713 -1.217674,1.97033 -2.770589,1.98983 -1.561559,0.0368 -2.826814,-0.83704 -2.844115,-1.89682 0,-1.08792 1.228483,-1.97034 2.787884,-1.99847 1.552914,-0.0307 2.82682,0.83703 2.82682,1.90546" />
    <path
       id="path56"
       style="fill-opacity:1;fill-rule:nonzero;stroke:none;stroke-width:2.16282868"
       d="m 99.289037,249.10947 c 0.18601,1.04899 -0.893244,2.12827 -2.435343,2.41587 -1.516142,0.27894 -2.91982,-0.37215 -3.11231,-1.41231 -0.188156,-1.07707 0.90839,-2.15634 2.424532,-2.43536 1.544257,-0.26792 2.926306,0.36356 3.123121,1.4318" />
  </g>
</svg>
