<?xml version="1.0" encoding="UTF-8" standalone="no"?>
<svg
   xmlns:dc="http://purl.org/dc/elements/1.1/"
   xmlns:cc="http://creativecommons.org/ns#"
   xmlns:rdf="http://www.w3.org/1999/02/22-rdf-syntax-ns#"
   xmlns:svg="http://www.w3.org/2000/svg"
   xmlns="http://www.w3.org/2000/svg"
   id="svg6"
   version="1.1"
   height="96px"
   width="96px"
   viewBox="0 0 48 48">
  <metadata
     id="metadata12">
    <rdf:RDF>
      <cc:Work
         rdf:about="">
        <dc:format>image/svg+xml</dc:format>
        <dc:type
           rdf:resource="http://purl.org/dc/dcmitype/StillImage" />
        <dc:title></dc:title>
      </cc:Work>
    </rdf:RDF>
  </metadata>
  <defs
     id="defs10" />
  <path
     transform="scale(0.5)"
     id="path2"
     d="M 48 18 C 35.6 18 24.6 19.199219 18 20.199219 C 13.8 20.799219 10.399609 23.999219 9.5996094 28.199219 C 8.7996094 32.799219 8 39.6 8 48 C 8 56.4 8.7996094 63.200781 9.5996094 67.800781 C 10.399609 72.000781 13.8 75.200781 18 75.800781 C 24.8 76.800781 35.8 78 48 78 C 60.4 78 71.4 76.800781 78 75.800781 C 82.2 75.200781 85.600391 72.000781 86.400391 67.800781 C 87.200391 63.200781 87.999219 56.4 88.199219 48 C 88.199219 39.6 87.200391 32.799219 86.400391 28.199219 C 85.600391 23.999219 82.2 20.799219 78 20.199219 C 71.2 19.199219 60.4 18 48 18 z M 40 34 L 64 48 L 40 62 L 40 34 z "
     style="stroke-width:2" />
</svg>
